<?xml version="1.0" encoding="utf-8"?>
<!-- Generator: Adobe Illustrator 19.2.0, SVG Export Plug-In . SVG Version: 6.00 Build 0)  -->
<svg version="1.1" id="Capa_1" xmlns="http://www.w3.org/2000/svg" xmlns:xlink="http://www.w3.org/1999/xlink" x="0px" y="0px"
	 viewBox="0 0 512 512" style="enable-background:new 0 0 512 512;" xml:space="preserve">
<style type="text/css">
	.st0{fill:#E6E9ED;}
	.st1{fill:#656D78;}
	.st2{fill:#FFDECF;}
	.st3{fill:#FFCDBE;}
	.st4{fill:#DCA746;}
	.st5{fill:#F6C358;}
	.st6{fill:#FCD462;}
	.st7{fill:#DC8744;}
</style>
<path class="st0" d="M129.6,285.9H107v164.8h22.5c4.1,0,7.5-3.3,7.5-7.3s0-10.7,0-14.8V308.5c0-4.1,0-10.9,0-15
	C137.1,289.3,133.7,285.9,129.6,285.9z"/>
<path class="st1" d="M107,443.3c0,4.1,0,10.9,0,15v0.4c0,4.1-3.4,7.5-7.5,7.5h-92c-4.1,0-7.5-3.4-7.5-7.5V278.4
	c0-4.1,3.4-7.5,7.5-7.5h92c4.1,0,7.5,3.4,7.5,7.5v0c0,4.1,0,10.9,0,15C107,293.5,107,443.3,107,443.3z"/>
<path class="st2" d="M361,353.8l16.5-7.5c37.6-15,90.1-41,90.1-41c14.4-8.3,32.7-3.4,41,11c8.3,14.4,0,30-11,41
	c0,0-135.2,109.2-180.3,109.2c-45.1,0-180.3-30-180.3-30V301.2c75.1-12.5,100.8,7.5,210.3,42.5c6,2.6,10.1,6.2,12.6,10.5L361,353.8z
	"/>
<g>
	<path class="st3" d="M508.6,316.2c-3-5.3-7.4-9.2-12.4-11.8c-1.8,8.4-7.2,16.3-13.6,22.7c0,0-120.2,106.5-165.3,106.5
		c-35.9,0-143.9-16.3-180.3-24v26.8c0,0,135.2,30,180.3,30c45.1,0,180.3-109.2,180.3-109.2C508.6,346.3,516.9,330.6,508.6,316.2z"/>
	<path class="st3" d="M336.9,399.4c12.2,0,24.5-6.8,32.7-18.3c7.9-11.1,9.5-23.7,4.4-33.3l-13.1,5.9l-0.6,0.3
		c0.1,0.2,0.3,0.5,0.4,0.6c2.5,4.4,1.2,11.4-3.4,17.8c-5,7.1-14.3,13.4-23.6,11.7c-14.7-2.7-101.8-14.6-105.5-15.1
		c-4.1-0.6-7.9,2.3-8.5,6.4c-0.6,4.1,2.3,7.9,6.4,8.5c0.9,0.1,90.4,12.3,104.8,15C333,399.2,334.9,399.4,336.9,399.4z"/>
</g>
<path class="st4" d="M410.8,154.2L410.8,154.2c-4.4,0-7.9-3.5-7.9-7.9l0-42.1c0-4.4,3.5-7.9,7.9-7.9h0c4.4,0,7.9,3.5,7.9,7.9l0,42.1
	C418.7,150.7,415.1,154.2,410.8,154.2z"/>
<circle class="st5" cx="395.7" cy="106.6" r="58.4"/>
<circle class="st6" cx="395.7" cy="106.6" r="46.4"/>
<path class="st7" d="M393.8,141.8v-6.2c-7.7-0.8-14.7-3.9-20.9-9.2l6.2-7.4c4.7,4.1,9.6,6.6,14.7,7.4v-16.5c-6.4-1.5-11.1-3.5-14-6
	c-3-2.5-4.5-6.2-4.5-11.1c0-4.9,1.7-8.9,5.1-12c3.4-3.1,7.9-4.8,13.4-5.1v-4.2h5.4v4.3c6.2,0.5,12.1,2.6,17.6,6.4l-5.5,7.8
	c-3.7-2.7-7.8-4.3-12.1-4.9V101h0.3c6.5,1.5,11.3,3.6,14.3,6.2c3.1,2.6,4.6,6.4,4.6,11.3c0,4.9-1.8,9-5.3,12.1
	c-3.5,3.1-8.1,4.8-13.9,5.1v6.1H393.8z M387.9,87c-1.4,1.3-2.2,2.9-2.2,4.7c0,1.9,0.6,3.4,1.7,4.5c1.1,1.1,3.3,2.2,6.4,3.2V84.8
	C391.3,85,389.3,85.8,387.9,87z M405.7,124.2c1.6-1.3,2.4-2.9,2.4-4.9c0-2-0.6-3.5-1.9-4.7c-1.2-1.2-3.6-2.2-7-3.3v15.3
	C402,126.3,404.1,125.5,405.7,124.2z"/>
<path class="st4" d="M260.7,231.1L260.7,231.1c-4.4,0-7.9-3.5-7.9-7.9l0-42.1c0-4.4,3.5-7.9,7.9-7.9h0c4.4,0,7.9,3.5,7.9,7.9l0,42.1
	C268.6,227.6,265,231.1,260.7,231.1z"/>
<circle class="st5" cx="245.6" cy="183.5" r="58.4"/>
<circle class="st6" cx="245.6" cy="183.5" r="46.4"/>
<path class="st7" d="M243.7,218.7v-6.2c-7.7-0.8-14.7-3.9-20.9-9.2l6.2-7.4c4.7,4.1,9.6,6.6,14.7,7.4v-16.5c-6.4-1.5-11.1-3.5-14-6
	c-3-2.5-4.5-6.2-4.5-11.1s1.7-8.9,5.1-12c3.4-3.1,7.9-4.8,13.4-5.1v-4.2h5.4v4.3c6.2,0.5,12.1,2.6,17.6,6.4l-5.5,7.8
	c-3.7-2.7-7.8-4.3-12.1-4.9v15.9h0.3c6.5,1.5,11.3,3.6,14.3,6.2c3.1,2.6,4.6,6.4,4.6,11.3c0,4.9-1.8,9-5.3,12.1
	c-3.5,3.1-8.1,4.8-13.9,5.1v6.1H243.7z M237.8,163.9c-1.4,1.3-2.2,2.9-2.2,4.7c0,1.9,0.6,3.4,1.7,4.5c1.1,1.1,3.3,2.2,6.4,3.2v-14.7
	C241.2,161.9,239.2,162.7,237.8,163.9z M255.6,201.1c1.6-1.3,2.4-2.9,2.4-4.9c0-2-0.6-3.5-1.9-4.7c-1.2-1.2-3.6-2.2-7-3.3v15.3
	C251.9,203.2,254,202.4,255.6,201.1z"/>
</svg>
