<?xml version="1.0" encoding="iso-8859-1"?>
<!-- Generator: Adobe Illustrator 19.0.0, SVG Export Plug-In . SVG Version: 6.00 Build 0)  -->
<svg version="1.1" id="Capa_1" xmlns="http://www.w3.org/2000/svg" xmlns:xlink="http://www.w3.org/1999/xlink" x="0px" y="0px"
	 viewBox="0 0 468.293 468.293" style="enable-background:new 0 0 468.293 468.293;" xml:space="preserve">
<circle style="fill:#F6C358;" cx="166.462" cy="122.612" r="104.873"/>
<circle style="fill:#FCD462;" cx="166.462" cy="122.612" r="83.362"/>
<path style="fill:#DC8744;" d="M163.107,185.742v-11.121c-13.923-1.42-26.42-6.955-37.478-16.601l11.121-13.253
	c8.53,7.414,17.307,11.827,26.358,13.253v-29.556c-11.48-2.74-19.886-6.348-25.217-10.817c-5.331-4.469-7.997-11.096-7.997-19.88
	s3.062-15.968,9.212-21.56c6.149-5.585,14.146-8.629,24.002-9.137v-7.618h9.745v7.767c11.17,0.818,21.733,4.624,31.689,11.431
	l-9.906,14.016c-6.707-4.773-13.96-7.718-21.783-8.84v28.639h0.459c11.679,2.746,20.258,6.453,25.738,11.121
	c5.492,4.674,8.232,11.456,8.232,20.339c0,8.889-3.149,16.13-9.447,21.708c-6.298,5.591-14.617,8.635-24.981,9.143v10.966H163.107z
	 M152.358,87.409c-2.591,2.281-3.881,5.126-3.881,8.53s1.017,6.094,3.05,8.071c2.021,1.984,5.889,3.887,11.58,5.715V83.367
	C158.532,83.777,154.949,85.122,152.358,87.409z M184.431,154.208c2.839-2.331,4.265-5.275,4.265-8.833
	c0-3.552-1.116-6.372-3.347-8.455c-2.244-2.083-6.41-4.035-12.497-5.864v27.418C177.724,157.971,181.58,156.545,184.431,154.208z"/>
<path style="fill:#44C4A1;" d="M455.717,261.928h-78.751c-6.945,0-12.575,5.63-12.575,12.575v163.453
	c0,6.945,5.63,12.575,12.575,12.575h78.751c6.945,0,12.575-5.63,12.575-12.575V274.504
	C468.293,267.558,462.662,261.928,455.717,261.928z"/>
<path style="fill:#F6C358;" d="M364.391,306.846l-58.3-43.645c-4.35-3.257-9.638-5.017-15.072-5.017l-97.3,0
	c-13.136,0-24.867,9.602-26.116,22.678c-1.432,15,10.327,27.623,25.032,27.623h90.011l0,0c7.964,5.962,3.748,18.63-6.201,18.63
	H148.794L37.939,261.678c-11.958-7.068-27.38-3.095-34.444,8.873c-7.058,11.961-3.089,27.38,8.876,34.441l113.01,103.225
	c3.709,3.388,8.213,6.034,13.191,6.702c1.107,0.149,2.226,0.224,3.351,0.224h222.468"/>
<rect x="407.29" y="379.673" style="fill:#27A2DB;" width="18.132" height="70.881"/>
<circle style="fill:#E56353;" cx="416.343" cy="301.387" r="17.308"/>
<g>
</g>
<g>
</g>
<g>
</g>
<g>
</g>
<g>
</g>
<g>
</g>
<g>
</g>
<g>
</g>
<g>
</g>
<g>
</g>
<g>
</g>
<g>
</g>
<g>
</g>
<g>
</g>
<g>
</g>
</svg>
